<?xml version="1.0" standalone="no"?><!DOCTYPE svg PUBLIC "-//W3C//DTD SVG 1.1//EN" "http://www.w3.org/Graphics/SVG/1.1/DTD/svg11.dtd"><svg class="icon" width="512px" height="512.00px" viewBox="0 0 1024 1024" version="1.1" xmlns="http://www.w3.org/2000/svg"><path d="M512.00512 996.66432c85.75488 0 171.3664-20.54144 242.41664-58.89024l-5.07904-78.20288s-11.86304-130.95936-121.25696-161.31584c-1.69472-0.46592-29.08672 25.71776-78.61248 23.35744l-31.77984-8.76032c-3.26656 0.13312-6.79424 4.23936-10.0352 4.3776-3.23584-0.14336-15.1296-14.46912-18.39616-14.59712l-16.72704 7.30112c-49.52576 2.36032-78.592-13.45536-80.2816-12.98944-109.39392 30.35648-117.58592 162.62656-117.58592 162.62656l-0.24576 82.8416c71.05024 38.3488 151.82848 54.25152 237.58336 54.25152z" fill="#ECF3FE" /><path d="M512.00512 1006.04416c-92.50816 0-173.94176-18.63168-242.03264-55.38304l-4.92544-2.6624 0.26112-88.45824c0.09216-1.93536 9.94304-139.84768 124.44672-171.62752l2.59072-0.35328c2.13504 0 3.75296 0.60928 6.95296 1.82272 8.89344 3.36896 33.84832 12.72832 71.08096 11.264l17.11616-7.45984 2.13504 0.08192c5.18656 0.2048 9.01632 3.8656 15.36 9.92256 0.99328 0.95232 2.36544 2.25792 3.584 3.36384 2.2272-1.36704 5.12512-2.9184 8.7552-3.06688l1.44896-0.0512 32.16896 8.85248c37.4016 1.6384 60.21632-14.17216 68.65408-19.8912 3.12832-2.12992 5.20192-3.5328 8.43264-3.5328l2.5344 0.34304c114.33472 31.73376 127.98976 168.13056 128.10752 169.50784l5.48864 84.44928-5.29408 2.85184c-71.70048 38.7072-159.37536 60.02688-246.86592 60.02688z m-228.1984-69.25824c64.32256 33.52064 141.07648 50.5088 228.1984 50.5088 82.28864 0 164.63872-19.48672 232.66816-54.95808l-4.6848-72.16128c-0.09216-0.99328-12.36992-121.55904-110.59712-151.77216-9.65632 6.52288-37.44768 24.68864-80.35328 22.56896l-2.04288-0.32256-28.9024-7.9616c-0.13824 0.09728-0.3072 0.2048-0.47104 0.3072-2.304 1.44896-5.46304 3.42528-9.5488 3.6096-5.94944-0.23552-9.74848-3.85024-16.03072-9.85088-1.03936-0.98304-2.4576-2.33984-3.70688-3.47648l-15.36 6.02624c-42.20416 2.0736-70.31808-8.6016-80.3072-12.38016-0.18432-0.06656-0.35328-0.13824-0.50176-0.19968-99.328 29.58848-108.06784 152.18688-108.14464 153.43104l-0.21504 76.63104z" fill="#6C0000" /><path d="M608.04608 922.32704a7.51104 7.51104 0 0 1-7.51104 7.51616l-176.98304 0.11264a7.51104 7.51104 0 0 1-7.51616-7.51104l-0.0768-119.79776a7.51104 7.51104 0 0 1 7.51104-7.51616l176.98304-0.11264a7.51104 7.51104 0 0 1 7.51616 7.51104l0.0768 119.79776z" fill="#9DEDDC" /><path d="M423.552 937.76896a15.34464 15.34464 0 0 1-15.32928-15.31904l-0.0768-119.78752a15.36 15.36 0 0 1 15.31392-15.3344l176.99328-0.10752a15.36512 15.36512 0 0 1 15.32928 15.2832l0.0768 119.81824a15.34976 15.34976 0 0 1-15.32928 15.3344l-176.97792 0.11264z m176.6144-135.22944l-176.6912 0.40448 0.36352 119.20896 176.6912-0.11264-0.36352-119.5008z" fill="#6B0204" /><path d="M453.92896 829.27616h50.32448v20.18304h-50.32448zM519.69536 829.2352h50.32448v20.18304h-50.32448zM453.95456 864.60416h116.096v31.12448H453.95456z" fill="#FFEC43" /><path d="M340.13184 695.67488l365.46048-6.70208c85.77536-63.31392 143.22688-167.15776 151.82336-275.74784 0.91136-11.52512 1.27488-23.10144 1.06496-34.69312-3.40992-185.984-161.29536-333.90592-352.65024-330.39872-191.35488 3.5072-343.71072 157.12256-340.3008 343.10656 2.21184 120.7808 72.91904 238.00832 174.60224 304.4352z" fill="#ECF3FE" /><path d="M337.42336 705.1008l-2.41152-1.57696c-106.43456-69.5296-176.64512-192.04096-178.85696-312.1152-3.49184-190.848 153.2928-349.04576 349.50656-352.64512l6.8352-0.06144c192.52224 0 351.92832 152.3712 355.34848 339.6608a371.32288 371.32288 0 0 1-1.07008 35.59424c-8.84736 111.5392-67.00544 217.1648-155.61216 282.56256l-2.41152 1.77152-371.328 6.8096zM512.49664 57.4464l-6.49728 0.06144c-185.87136 3.39968-334.40256 153.04192-331.1104 333.55776 2.08896 113.14688 67.92192 228.69504 167.98208 295.18336l359.54176-6.58944c82.95936-62.34624 137.33888-161.99168 145.67936-267.17696 0.8704-11.3152 1.21856-22.68672 1.024-33.77664-3.25632-177.14688-154.26048-321.25952-336.61952-321.25952z" fill="#6C0000" /><path d="M352.256 674.80576l330.112 0.50176c73.00608-59.392 125.184-160.34816 123.43808-255.58528-2.8416-155.0848-136.68864-278.39488-298.94656-275.42016-162.26304 2.9696-291.49184 131.10272-288.65024 286.18752 1.74592 95.19104 55.38816 187.6992 134.04672 244.31616z" fill="#BED5E9" /><path d="M685.69088 684.67712l-336.48128-0.512-2.44224-1.76128c-83.328-59.9808-136.17664-156.4416-137.9328-251.74016-2.92864-160.00512 130.688-292.67456 297.84576-295.73632l5.91872-0.0512c163.95264 0 299.68896 127.70304 302.57152 284.672 1.72544 94.19264-49.26464 199.89504-126.88896 263.02976l-2.59072 2.0992z m-330.3936-19.24096l323.712 0.49664c71.94624-59.91424 119.03488-158.34112 117.43232-246.04672-2.69824-146.816-130.03264-266.27072-283.84256-266.27072l-5.5808 0.0512c-156.81536 2.87744-282.17856 126.97088-279.4496 276.64896 1.63328 88.58624 50.50368 178.41152 127.72864 235.12064z" fill="#6C0000" /><path d="M708.16256 700.23168c0 18.944-7.31648 34.304-16.34816 34.304H332.19584c-9.02656 0-16.34816-15.36-16.34816-34.304s7.31648-34.304 16.34816-34.304h359.61856c9.02656 0 16.34816 15.35488 16.34816 34.304z" fill="#FFC700" /><path d="M691.80928 743.90528H332.19072c-14.90432 0-25.7024-18.37056-25.7024-43.67872s10.79808-43.67872 25.7024-43.67872h359.61856c14.90432 0 25.71776 18.37056 25.71776 43.67872s-10.81856 43.67872-25.71776 43.67872z m-0.39936-68.66944l-359.2192 0.06144c-1.69472 0.82944-6.96832 9.58464-6.96832 24.92928s5.27872 24.09984 7.36768 25.00096l358.94784-0.06656c2.18112-1.18272 7.26016-9.89184 7.26016-24.92928-0.00512-15.35488-5.2992-24.09984-7.38816-24.99584z" fill="#6C0000" /><path d="M571.04896 336.0256c6.04672-6.912 15.7952-8.28416 21.77024-3.05664l57.04192 49.8944c5.97504 5.22752 5.91872 15.06816-0.13312 21.98016-6.04672 6.912-15.7952 8.28416-21.77024 3.05664l-57.04192-49.8944c-5.96992-5.2224-5.9136-15.06304 0.13312-21.98016zM609.54624 275.40992c6.04672-6.912 18.048-6.31296 26.79808 1.34656l83.57888 73.10336c8.7552 7.6544 10.94656 19.47136 4.89984 26.38336-6.04672 6.912-18.048 6.31296-26.79808-1.34656l-83.57888-73.10336c-8.7552-7.65952-10.94656-19.47136-4.89984-26.38336z" fill="#6C0000" /></svg>